<?xml version="1.0" encoding="utf-8"?>
<!-- Generator: Adobe Illustrator 23.0.5, SVG Export Plug-In . SVG Version: 6.00 Build 0)  -->
<svg version="1.1" id="Capa_1" xmlns="http://www.w3.org/2000/svg" xmlns:xlink="http://www.w3.org/1999/xlink" x="0px" y="0px"
	 viewBox="0 0 512 512" style="enable-background:new 0 0 512 512;" xml:space="preserve">
<style type="text/css">
	.st0{fill:#F4FBFF;}
	.st1{fill:#E4F6FF;}
	.st2{fill:#E28086;}
	.st3{fill:#BED8FB;}
	.st4{fill:#407093;}
	.st5{fill:#FFE07D;}
	.st6{fill:#FFD064;}
	.st7{fill:#365E7D;}
	.st8{font-family:'Elephant-Regular';}
	.st9{font-size:110.6156px;}
</style>
<g>
	<g>
		<g>
			<g>
				<g>
					<g>
						<path class="st0" d="M475,397.5V127.4c0-8.8-3.5-17.2-9.7-23.5l-86.6-86.7c-6.2-6.2-14.7-9.7-23.5-9.7h-285
							C51.9,7.6,37,22.4,37,40.8v356.7H475z"/>
						<g>
							<path class="st1" d="M465.3,104l-53.6-53.6v347.1H475V127.4C475,118.6,471.5,110.2,465.3,104L465.3,104z"/>
						</g>
						<path class="st2" d="M465.3,104l-86.6-86.7c-2.8-2.8-6.1-5.1-9.7-6.7v82.5c0,11.4,9.2,20.6,20.6,20.6H472
							C470.4,110.1,468.1,106.8,465.3,104z"/>
					</g>
					<g>
						<g>
							<path class="st3" d="M199.5,206.9h-89.4c-9.7,0-17.5-7.8-17.5-17.5V78.5c0-9.7,7.8-17.5,17.5-17.5h89.4
								c9.7,0,17.5,7.8,17.5,17.5v110.9C217,199,209.2,206.9,199.5,206.9z"/>
							<path class="st4" d="M154.8,150.9c-28.3,0-52.5,18-61.5,43.3c2.1,7.3,8.8,12.7,16.8,12.7h89.4c8,0,14.8-5.4,16.8-12.7
								C207.2,168.9,183.1,150.9,154.8,150.9L154.8,150.9z"/>
						</g>
					</g>
				</g>
				<g>
					<g>
						<path class="st5" d="M158.7,269.3l-12.2-13.8c-6-6.8-14.6-10.7-23.6-10.7H30.6c-12.7,0-23.1,10.3-23.1,23.1v212.6
							c0,13.2,10.7,23.9,23.9,23.9h449.2c13.2,0,23.9-10.7,23.9-23.9V303c0-12.7-10.3-23.1-23.1-23.1H182.3
							C173.3,280,164.7,276.1,158.7,269.3L158.7,269.3z"/>
					</g>
				</g>
				<g>
					<path class="st6" d="M83.2,255.5l12.2,13.8c6,6.8,14.6,10.7,23.6,10.7h63.3c-9,0-17.6-3.9-23.6-10.7l-12.2-13.8
						c-6-6.8-14.6-10.7-23.6-10.7H59.6C68.6,244.9,77.2,248.7,83.2,255.5L83.2,255.5z"/>
					<path class="st6" d="M481.4,280h-63.3c12.7,0,23.1,10.3,23.1,23.1v177.5c0,13.2-10.7,23.9-23.9,23.9h63.3
						c13.2,0,23.9-10.7,23.9-23.9V303C504.5,290.3,494.2,280,481.4,280L481.4,280z"/>
				</g>
			</g>
			<g>
				<ellipse class="st7" cx="154.8" cy="129.6" rx="27.9" ry="27.9"/>
			</g>
		</g>
		<g>
			<path d="M273.7,203.2h145.8c4.1,0,7.5-3.4,7.5-7.5s-3.4-7.5-7.5-7.5H273.7c-4.1,0-7.5,3.4-7.5,7.5S269.5,203.2,273.7,203.2z"/>
			<path d="M273.7,160.1h145.8c4.1,0,7.5-3.4,7.5-7.5s-3.4-7.5-7.5-7.5H273.7c-4.1,0-7.5,3.4-7.5,7.5S269.5,160.1,273.7,160.1z"/>
			<path d="M199.5,214.4c13.8,0,25-11.2,25-25V78.5c0-13.8-11.2-25-25-25h-89.4c-13.8,0-25,11.2-25,25v110.9c0,13.8,11.2,25,25,25
				H199.5z M110.1,68.4h89.4c5.5,0,10,4.5,10,10v89.6c-7-7.9-15.7-14.3-25.5-18.6c3.9-5.7,6.2-12.6,6.2-19.9
				c0-19.5-15.9-35.4-35.4-35.4s-35.4,15.9-35.4,35.4c0,7.4,2.3,14.3,6.2,19.9c-9.8,4.3-18.5,10.6-25.5,18.6V78.5
				C100.1,72.9,104.6,68.4,110.1,68.4z M134.4,129.6c0-11.3,9.2-20.4,20.4-20.4s20.4,9.2,20.4,20.4c0,11.3-9.2,20.4-20.4,20.4
				S134.4,140.8,134.4,129.6L134.4,129.6z M101.3,194.2c6.7-16.2,20.2-28.4,36.9-33.3c5,2.6,10.6,4.1,16.6,4.1s11.6-1.5,16.6-4.1
				c16.7,5,30.2,17.2,36.9,33.3c-1.7,3.1-5,5.2-8.8,5.2h-89.4C106.3,199.4,103,197.3,101.3,194.2L101.3,194.2z"/>
			<path d="M504.5,387.4c4.1,0,7.5-3.4,7.5-7.5V303c0-16.5-13.1-30-29.5-30.5V127.4c0-10.9-4.2-21.1-11.9-28.8L384,12
				c-7.7-7.7-17.9-11.9-28.8-11.9h-285c-22.4,0-40.7,18.2-40.7,40.7v169c0,4.1,3.4,7.5,7.5,7.5s7.5-3.4,7.5-7.5v-169
				c0-14.2,11.5-25.7,25.7-25.7h285c2.1,0,4.2,0.3,6.2,0.8v77.3c0,15.5,12.6,28.1,28.1,28.1h77.2c0.5,2,0.8,4.1,0.8,6.2v145.1H182.3
				c-6.9,0-13.4-3-18-8.1l-12.2-13.8c-7.4-8.4-18-13.2-29.2-13.2H30.6C13.7,237.4,0,251.1,0,267.9v212.6c0,17.3,14.1,31.4,31.4,31.4
				h449.2c17.3,0,31.4-14.1,31.4-31.4V415c0-4.1-3.4-7.5-7.5-7.5s-7.5,3.4-7.5,7.5v65.5c0,9.1-7.4,16.4-16.4,16.4H31.4
				c-9.1,0-16.4-7.4-16.4-16.4V267.9c0-8.6,7-15.6,15.6-15.6h92.3c6.9,0,13.4,3,18,8.1l12.2,13.8c7.4,8.4,18,13.2,29.2,13.2h299.1
				c8.6,0,15.6,7,15.6,15.6v76.9C497,384.1,500.4,387.4,504.5,387.4L504.5,387.4z M376.4,93.1V25.7l80.4,80.5h-67.4
				C382.3,106.2,376.4,100.3,376.4,93.1z"/>
		</g>
	</g>
</g>
<text transform="matrix(0.9235 0 0 1 23 424.625)" class="st8 st9">Fachrul_</text>
</svg>
