<svg xmlns="http://www.w3.org/2000/svg" width="82.339" height="82.339" viewBox="0 0 82.339 82.339">
  <g id="backend" transform="translate(-3 -3)">
    <path id="Path_9" data-name="Path 9" d="M18.28,53l-1.892,5.679H35.161L33.269,53Z" transform="translate(5.618 20.982)" fill="#676099"/>
    <path id="Path_10" data-name="Path 10" d="M45.491,59H11.42A1.422,1.422,0,0,0,10,60.42v1.42H46.911V60.42A1.422,1.422,0,0,0,45.491,59Z" transform="translate(2.937 23.5)" fill="#676099"/>
    <path id="Path_11" data-name="Path 11" d="M3,49.259a4.264,4.264,0,0,0,4.259,4.259H55.527a4.264,4.264,0,0,0,4.259-4.259V45H3Zm32.652-1.42h2.839v2.839H35.652Zm-5.679,0h2.839v2.839H29.973Zm-5.679,0h2.839v2.839H24.295Z" transform="translate(0 17.625)" fill="#676099"/>
    <path id="Path_12" data-name="Path 12" d="M36.812,25H8.42A1.422,1.422,0,0,0,7,26.42V43.455a1.422,1.422,0,0,0,1.42,1.42H36.812a1.422,1.422,0,0,0,1.42-1.42V26.42A1.422,1.422,0,0,0,36.812,25ZM17.941,39.612,15.934,41.62,9.252,34.937l6.682-6.682,2.007,2.007-4.675,4.675ZM21.124,43.9l-2.693-.9L24.109,25.97l2.693.9ZM29.3,41.62l-2.007-2.007,4.675-4.675-4.675-4.675L29.3,28.255l6.682,6.682Z" transform="translate(1.679 9.232)" fill="#676099"/>
    <path id="Path_13" data-name="Path 13" d="M55.527,21H7.259A4.264,4.264,0,0,0,3,25.259V52.232H59.786V25.259A4.264,4.264,0,0,0,55.527,21ZM42.75,45.134a4.264,4.264,0,0,1-4.259,4.259H10.1a4.264,4.264,0,0,1-4.259-4.259V28.1A4.264,4.264,0,0,1,10.1,23.839H38.491A4.264,4.264,0,0,1,42.75,28.1Zm8.518,4.259H48.428V46.553h2.839Zm5.679,0H54.107V46.553h2.839Zm0-5.679H45.589V40.875H56.946Zm0-5.679H45.589V35.2H56.946Zm0-5.679H45.589V29.518H56.946Zm0-5.679H45.589V23.839H56.946Z" transform="translate(0 7.553)" fill="#676099"/>
    <path id="Path_14" data-name="Path 14" d="M45,27H62.036V46.875H45Z" transform="translate(17.625 10.071)" fill="#676099"/>
    <path id="Path_15" data-name="Path 15" d="M15,22.357H50.491a7.106,7.106,0,0,1,7.1,7.1v1.42H77.464V56.428H57.589v2.839H78.884a1.422,1.422,0,0,0,1.42-1.42V11H15Zm62.464,5.679H60.428V25.2H77.464Zm0-5.679H60.428V19.518H77.464ZM23.518,13.839H77.464v2.839H23.518Zm-5.679,0h2.839v2.839H17.839Z" transform="translate(5.036 3.357)" fill="#676099"/>
    <path id="Path_16" data-name="Path 16" d="M78.884,3H16.42A1.422,1.422,0,0,0,15,4.42v7.1H80.3V4.42A1.422,1.422,0,0,0,78.884,3ZM20.679,8.679H17.839V5.839h2.839Zm5.679,0H23.518V5.839h2.839Zm5.679,0H29.2V5.839h2.839Z" transform="translate(5.036 0)" fill="#676099"/>
  </g>
</svg>
