<svg id="graphic-design" xmlns="http://www.w3.org/2000/svg" width="88.504" height="82.528" viewBox="0 0 88.504 82.528">
  <path id="Path_19" data-name="Path 19" d="M0,315.723v5.752a7.788,7.788,0,0,0,7.779,7.779H33.314v9.236H26.151a2.593,2.593,0,0,0,0,5.186h36.2a2.593,2.593,0,0,0,0-5.186H55.19v-9.236H80.725a7.788,7.788,0,0,0,7.779-7.779v-5.752Zm43.132,3.286h2.24a2.593,2.593,0,1,1,0,5.186h-2.24a2.593,2.593,0,1,1,0-5.186Zm0,0" transform="translate(0 -261.148)" fill="#676099"/>
  <path id="Path_20" data-name="Path 20" d="M88.5,49.39V7.779A7.788,7.788,0,0,0,80.725,0H7.779A7.788,7.788,0,0,0,0,7.779V49.39ZM71.11,31.617a2.593,2.593,0,0,1-2.593,2.593H60.589v8.766A2.593,2.593,0,0,1,58,45.569H19.986a2.593,2.593,0,0,1-2.593-2.593V22.04a2.593,2.593,0,0,1,2.593-2.593h7.929V10.681a2.593,2.593,0,0,1,2.593-2.593h38.01a2.594,2.594,0,0,1,2.593,2.593Zm0,0" fill="#676099"/>
  <path id="Path_21" data-name="Path 21" d="M191.484,82.963h24.9a2.593,2.593,0,0,1,2.593,2.593V92.54h5.335V76.789H191.483v6.174Zm0,0" transform="translate(-158.384 -63.516)" fill="#676099"/>
  <path id="Path_22" data-name="Path 22" d="M163.445,158.254V142.5H130.621v15.75ZM148.525,153.7h-.947a2.593,2.593,0,1,1,0-5.186h.947a2.593,2.593,0,0,1,0,5.186Zm8.621,3.831H156.2a2.593,2.593,0,0,1,0-5.186h.947a2.593,2.593,0,0,1,0,5.186ZM154.3,143.4h.947a2.593,2.593,0,1,1,0,5.186H154.3a2.593,2.593,0,1,1,0-5.186Zm-15.774.612h.947a2.593,2.593,0,1,1,0,5.186h-.947a2.593,2.593,0,1,1,0-5.186Zm-.321,12.178h-.947a2.593,2.593,0,1,1,0-5.186h.947a2.593,2.593,0,0,1,0,5.186Zm0,0" transform="translate(-108.042 -117.871)" fill="#676099"/>
</svg>
