<svg xmlns="http://www.w3.org/2000/svg" width="485" height="530.002" viewBox="0 0 485 530.002">
  <g id="Work-at-home" transform="translate(-368.046 -95)">
    <g id="Group" transform="translate(367.605 95)">
      <g id="UI-_-Social-_-Chat-1-_-1" data-name="UI-/-Social-/-Chat-1-/-1" transform="translate(266.036)">
        <g id="Socials-">
          <g id="Browser">
            <g id="Background">
              <rect id="Rectangle_2" data-name="Rectangle 2" width="218.983" height="164.418" rx="20" fill="#f2f6fb"/>
            </g>
          </g>
          <g id="Userpic" transform="translate(13.105 111.584)">
            <g id="Group_1" data-name="Group 1" transform="translate(0 0)">
              <path id="Combined-Shape" d="M19.82,40.041A20.022,20.022,0,0,1,19.82,0a20.022,20.022,0,0,1,0,40.041Zm.043-20.1A2.641,2.641,0,1,0,17.215,17.3,2.644,2.644,0,0,0,19.864,19.937Zm0,1.32a4.793,4.793,0,0,0-4.8,4.786h9.6A4.793,4.793,0,0,0,19.864,21.257Z" transform="translate(0 0)" fill="#d8deed"/>
            </g>
          </g>
          <g id="Send-Message">
            <path id="Combined-Shape-2" data-name="Combined-Shape" d="M13.105,36a2.179,2.179,0,0,1,2.18-2.182H154.248A2.182,2.182,0,0,1,156.428,36V95.563a2.179,2.179,0,0,1-2.18,2.182H15.285a2.182,2.182,0,0,1-2.18-2.182Zm53.856,91.88H176.347a3.972,3.972,0,0,1,0,7.945H66.962a3.972,3.972,0,1,1,0-7.945Zm0,12.91H196.233a3.972,3.972,0,0,1,0,7.945H66.962a3.972,3.972,0,1,1,0-7.945Zm0-25.82h81.544a3.972,3.972,0,0,1,0,7.945H66.962a3.972,3.972,0,1,1,0-7.945ZM0,9.3A9.3,9.3,0,0,1,9.3,0H210.109a9.3,9.3,0,0,1,9.3,9.3v9.3H0Z" fill="#e1e5f0"/>
            <g id="Button" transform="translate(166.381 83.76)">
              <g id="Group_2" data-name="Group 2" transform="translate(0)">
                <path id="Path_2" data-name="Path 2" d="M6.992,0H32.819a6.993,6.993,0,0,1,0,13.985H6.992A6.993,6.993,0,0,1,6.992,0Z" transform="translate(0)" fill="#a339ff"/>
              </g>
            </g>
          </g>
        </g>
        <ellipse id="Burron-Copy" cx="4.016" cy="4.015" rx="4.016" ry="4.015" transform="translate(8.455 5.495)" fill="#ff5645"/>
        <ellipse id="Burron-Copy-2" cx="4.016" cy="4.015" rx="4.016" ry="4.015" transform="translate(21.56 5.495)" fill="#ffcb3d"/>
        <ellipse id="Burron-Copy-3" cx="4.016" cy="4.015" rx="4.016" ry="4.015" transform="translate(35.088 5.495)" fill="#3abf7c"/>
      </g>
      <g id="Chair" transform="translate(295.707 245.538)">
        <path id="Path" d="M209.956,149.656V3.1c0-1.307-22.594-2.4-49.761-2.4h-5.662c-27.113,0-49.761,1.089-49.761,2.4V149.765c0,1.307,22.594,2.4,49.761,2.4h5.662C187.307,152.215,209.956,151.071,209.956,149.656Z" transform="translate(-48.003 -0.7)" fill="#d8deed"/>
        <path id="Path-2" data-name="Path" d="M1.791,420.168l.218.109a2.356,2.356,0,0,0,3.158-.762L68.92,302.408a2.25,2.25,0,0,0-1.034-3.049l-.218-.109a2.356,2.356,0,0,0-3.158.762L48.721,328.976Q33.287,357.4,17.8,385.76L.757,417.01A2.389,2.389,0,0,0,1.791,420.168Z" transform="translate(-0.5 -136.575)" fill="#d8deed"/>
        <path id="Path-3" data-name="Path" d="M166.613,296H17.222a2.464,2.464,0,0,0-2.45,2.4v.272a2.429,2.429,0,0,0,2.45,2.4h149.5a2.464,2.464,0,0,0,2.45-2.4V298.4A2.49,2.49,0,0,0,166.613,296Z" transform="translate(-7.002 -135.23)" fill="#d8deed"/>
        <path id="Path-4" data-name="Path" d="M272.12,416.99l-17.041-31.25q-15.435-28.419-30.924-56.784l-15.788-28.964a2.306,2.306,0,0,0-3.158-.762l-.218.109a2.264,2.264,0,0,0-1.034,3.049L267.71,419.494a2.306,2.306,0,0,0,3.158.762l.218-.109A2.389,2.389,0,0,0,272.12,416.99Z" transform="translate(-93.072 -136.554)" fill="#d8deed"/>
      </g>
      <g id="Animals-_-Cat" data-name="Animals-/-Cat" transform="translate(111.364 375.112)">
        <g id="Cat" transform="translate(0 0)">
          <path id="Base-Color" d="M93.355,15c3.914,1.945,5.25,3.87,5.458,5.553.305,2.833-.357,5.109-1.935,8.852A191.773,191.773,0,0,0,89.14,52.265q-.916-.2-1.829-.416a35.772,35.772,0,0,1,1.231,8.583H4.17c1.431,0,11.775-28.009,48.276-30.856q1.573-.125,3.056-.161a11.989,11.989,0,0,1,1.3-3.036C55.275,22.631,54.1,13.845,53.7,10.186a1.434,1.434,0,0,1,.1-.451.98.98,0,0,1,1.232-.4L66.587,15c1.973-.722,4.06-1.378,6.262-2.034,2.085-.637,4.17-1.181,6.131-1.679L83.116.535A.8.8,0,0,1,84.184.072a.685.685,0,0,1,.356.309C86.681,3.4,91.94,11.1,93.355,15Z" transform="translate(-1.889 0)" fill="#ffcb3d"/>
          <path id="Color" d="M.088,71.1q-.646-4.087,3.447-4.974,16.881-.935,30.042,2.506t15.329,6.007H3.535A3.465,3.465,0,0,1,.088,71.1ZM89.469,52.67c1.312-1.521,5.35-8.059,5.35-8.059S90.378,58.094,87.7,66.457c.151-.71-1.968,4.968-2.22,3.5V69.9a3.711,3.711,0,0,0-3.432-2.99q-2.422-.152-5.148-.152a54.319,54.319,0,0,0-7.014.456l-3.381-10.29A19.845,19.845,0,0,0,77.157,58.9a18.2,18.2,0,0,0,3.684-.71A18.675,18.675,0,0,0,89.469,52.67ZM77.33,40.229a2.342,2.342,0,0,0,4.108-2,.817.817,0,1,1,1.606-.3A4.131,4.131,0,0,1,81,42.288l-.057.029a4.121,4.121,0,0,1-4.082-.341,4,4,0,0,1-2.075,2.07,4.216,4.216,0,0,1-5.177-1.731.817.817,0,1,1,1.418-.81,2.574,2.574,0,0,0,3.132,1.033,2.079,2.079,0,0,0,1.321-2.056l-.009-.016a2.344,2.344,0,0,1-.236-1.387,1.171,1.171,0,0,1,.473-.822,1.017,1.017,0,0,1,1.466.36A2.456,2.456,0,0,1,77.33,40.229Zm-13.791.023c.574,1.079.048,2.62-.526,2.723-.431.051-.957-.514-1.148-.873a2.321,2.321,0,0,1-.24-1.387,1.169,1.169,0,0,1,.479-.822A.983.983,0,0,1,63.538,40.251Zm24.518-8.711c.531,1.079.048,2.517-.531,2.723-.434.051-.966-.514-1.159-.873A2.3,2.3,0,0,1,86.125,32a1.164,1.164,0,0,1,.483-.822A1,1,0,0,1,88.057,31.541Z" transform="translate(0 -14.123)" fill="#de6903"/>
        </g>
      </g>
      <g id="Characters-sitting-_-Woman-sitting_-1" data-name="Characters-sitting-/-Woman-sitting/-1" transform="translate(265.104 174.725)">
        <g id="man" transform="translate(0 0)">
          <g id="Legs" transform="translate(0 161.645)">
            <path id="Base" d="M2.442,346.635H88.034a2.32,2.32,0,1,1,0,4.641H2.442a2.32,2.32,0,0,1,0-4.641Zm96,0h54.116a2.32,2.32,0,1,1,0,4.641H98.446a2.32,2.32,0,1,1,0-4.641Z" transform="translate(-0.121 -157.917)" fill="#ff5645"/>
            <path id="Shoes" d="M153.657,319.759h-53.4l4.281-28.166h38.055Zm-62.486.5a2.313,2.313,0,0,0-1.436-.5H4.141a2.372,2.372,0,0,0-.25.013,6.033,6.033,0,0,1-.038-.855,10.546,10.546,0,0,1,.178-1.183c.673-2.464,1.489-4.1,3.876-5.555a66.672,66.672,0,0,1,7.362-3.9c9.364-4.326,12.564-4.271,18.72-8.239a49.736,49.736,0,0,0,7.079-5.654,75.749,75.749,0,0,1,9.459-6.748l37.567.113Z" transform="translate(-1.821 -131.041)" fill="#474961"/>
            <path id="Path_3" data-name="Path 3" d="M154.974,67.518c-.086,25.229-.953,58.744-1.252,70.273-.052,1.606.157,5.951-2.991,8.69a11.237,11.237,0,0,1-3.462,1.842c-1.312.567-7.188,2.267-18.939,3.212a18.678,18.678,0,0,1-2.308.047c-12.118-.425-15.109-1.18-19.778-2.5a7.72,7.72,0,0,1-5.666-6.612c-1.469-13.744-5.509-51.2-5.823-54.5-.42-4.2-.787-8.974-1.1-14.405l-.167-2.542L78.969,65.3c6.063,23.211,11.945,47.251,17.2,71.15a8.994,8.994,0,0,1-.629,6.3c-2.519,4.734-9.076,4.49-24.762,6.344-18.467,2.2-26.178,4.489-30.375-.2a8.154,8.154,0,0,1-2.046-3.806C34.53,126.1,15.539,71.005,8.142,31.477c0-.1-.052-.146-.052-.244A22.454,22.454,0,0,1,27.763,4.881c4.354-.537,8.289-1.054,12.643-1.591a24.5,24.5,0,0,1,3.938-.14l65-1.127c38.552-.335,33.243-4.81,45.3.736Q166.7,8.3,171.058,34.338,172.619,54.132,154.974,67.518Z" transform="translate(-3.578 0)" fill="#fdac25"/>
            <path id="Shadow-Legs" d="M185.848,67.468q.007-1.977.007-3.882c0-9.824.052-18.278.157-23.709.105-4.3.892-27.912-9.286-32.824a32.931,32.931,0,0,0-3.567-1.37,52.165,52.165,0,0,0-18.2-2.55c-6.138.236-15.371.614-22.978,6.518-10.492,8.171-10.23,21.064-10.125,23.142l2.511,38.251-14.511-5.719c-4.042-15.475-8.165-30.582-12.238-45.032C94.833,10.458,85.533,3.651,75.332,3.147l64.819-1.124c38.552-.335,33.243-4.81,45.3.736Q197.5,8.3,201.865,34.338,203.424,54.1,185.848,67.468Z" transform="translate(-34.385 0)" fill="rgba(68,68,68,0.66)" opacity="0.177"/>
          </g>
          <g id="Body" transform="translate(4.989)">
            <path id="T-shirt" d="M146.125,117.275q.947-.408,1.937-.726l11.2-3.738q.973-.177,1.938-.31c.883-1.013,2.68-1.871,5.8-2.828,11.067-3.458,25.193,2.292,30.224,15.177,4.384,11.228,10.209,23.911,9.666,24.078a27.2,27.2,0,0,1-6.14,2.98q7.555,28.512,8.141,38.174c.778,12.828-3.537,21.427-18.159,22.517s-34.974,2.625-37.365-1.629q-2.307-4.1-21.681-50.662-7.243,2.345-7.565,2.4c-.674.117-2.966-7.432-4.458-19.369-1.712-13.7,6.6-25.122,20.363-27.458A7.661,7.661,0,0,1,146.125,117.275Z" transform="translate(-54.94 -49.774)" fill="#ff5645"/>
            <path id="Combined-Shape-3" data-name="Combined-Shape" d="M146.158,123.207c-13.693,5.68-20.492,25.131-15.932,39.515q.755,1.769,1.488,3.481-7.279,2.356-7.6,2.412c-.674.117-2.966-7.432-4.458-19.369-1.712-13.7,6.6-25.122,20.363-27.458A7.663,7.663,0,0,1,146.158,123.207Z" transform="translate(-54.94 -55.681)" fill="#161137" opacity="0.177"/>
            <path id="Finger" d="M126.941,125.508s-1,3.919,4.3,2.836,6.82-1.6,6.82-1.6l-1.364-3.558Z" transform="translate(-58.327 -56.381)" fill="#482d1f"/>
            <path id="Skin" d="M99.569,78.768l9.757,45.553,2.319-12.366q18.34,3.593,29.851,3.592h.124c-1.729,6.614-5.826,35.312-12.2,46.415-8.058,14.036-12.761,15.578-24.661,14.431a18.966,18.966,0,0,1-3.452-.646,15.182,15.182,0,0,0,1.609.427l-61.562.946-.005.017-.187-.014-.238,0a1.081,1.081,0,0,1-.328-.045l-25.188-1.851A14.157,14.157,0,0,1,5.187,169.7l-2.831-3.713a6.476,6.476,0,0,1,4.237-10.338l7.526-1.072a54.446,54.446,0,0,1,15.552.028l15.538,2.271c11.8-3.708,27.54-8.577,31.47-9.416L71.8,124.81l5.769-2.264q2.716,6.2,5.113,11.651c-1.81-17.26-1.606-36.321-3.782-53.252l-5.456.117C70.19,82.35,63.37,84.516,62.636,79.927c0,0,9.023-3.661,15.371-6.343l.473-.412a3.268,3.268,0,0,1,1.312-.722.673.673,0,0,1,.315-.052l.348-.05a12.206,12.206,0,0,1-1.839.029c-4.388-.192-9.767-7.959-12.354-19.279a24.884,24.884,0,0,1-.456-2.756l-.661-9.208a11.331,11.331,0,0,1,1.1-5.944,4.456,4.456,0,0,1,.268-.541,17.592,17.592,0,0,1,.969-1.533,14.519,14.519,0,0,1,4.484-4.06,24.594,24.594,0,0,1,11.108-2.4c.37.02,1.534.075,3.172.141a22.626,22.626,0,0,0,4.549.23,1.6,1.6,0,0,1,1.6,1.467l.648,13.195c0,.1.751-2.419.8-2.241,5.283-2.148,9.635-.867,11.917,3.732,3.422,6.9-.968,8.006-2.49,9.845a8.012,8.012,0,0,1-3.38,2.258,1.131,1.131,0,0,0-.5.272l4.109.039.726,2.836.268,3.6L107.2,75.2A74.077,74.077,0,0,1,99.569,78.768ZM90.393,70.93l-.309-1.48-.393.164c-4.367,1.825-4.114,1.7-4.419,1.829-.654.2-1.291.361-1.9.488l4.7-.666Zm42.9,263.816H98.824l.743-11.391c4.236,1.18,7.562,1.872,18.954,2.271a18.67,18.67,0,0,0,2.308-.047,121.017,121.017,0,0,0,12.951-1.663l3,10.681ZM80.783,321l1.5,9.757H44.521l2.491-5.53c4.226-.483,9.531-1.3,16.267-2.1C71.246,322.186,76.859,321.786,80.783,321Z" transform="translate(-0.999 -12.398)" fill="#f2a98a"/>
            <path id="Shadow" d="M168.118,104.357l-1.983.273-1.109.16-.113-.032-.311-1.49,5.631-2.386A10.972,10.972,0,0,1,168.118,104.357Z" transform="translate(-75.518 -46.219)" fill="#482d1f"/>
            <path id="Eyes" d="M125.017,70.745c.187.916.529,2.387.17,3.091-.584,1.137-2.632-1.171-2.474-2.945.093-.733.431-1.072.849-1.108A1.272,1.272,0,0,1,125.017,70.745ZM136.166,68.8c.187.916.529,2.387.17,3.091-.584,1.137-2.632-1.171-2.474-2.945.093-.733.431-1.072.849-1.108A1.272,1.272,0,0,1,136.166,68.8Z" transform="translate(-56.431 -31.159)" fill="#482d1f"/>
            <path id="Nose" d="M.472.469,0,5.626A1.191,1.191,0,0,0,1.1,6.858a14.182,14.182,0,0,0,1.529.011c.418-.008.7-.011,1.042-.011a.516.516,0,1,0,0-1.031c-.346,0-.638,0-1.061.012a14.024,14.024,0,0,1-1.469-.01.219.219,0,0,1-.093-.156l.47-5.11A.524.524,0,0,0,.472.469Z" transform="translate(70.652 39.049) rotate(-5)" fill="#482d1f"/>
            <path id="Mouth" d="M3.568,1.41c.367-.1,1.258-.462,1.362-.978,0-.1.052-.258,0-.309-.21-.258-.892-.053-1.835.1A22.788,22.788,0,0,1,0,.477,7.327,7.327,0,0,0,.736,1.612C1.314,2.232,2.992,1.615,3.568,1.41Z" transform="translate(72.283 47.381) rotate(-5)" fill="#482d1f"/>
            <path id="Shadow-Arm" d="M102.859,256.424,41.3,257.37l-.005.017-.187-.014-.238,0a1.082,1.082,0,0,1-.328-.045L15.35,255.48a14.156,14.156,0,0,1-10.219-5.535L2.3,246.233A6.476,6.476,0,0,1,6.537,235.9l7.526-1.072a54.446,54.446,0,0,1,15.552.028l15.538,2.271c11.8-3.708,27.539-8.577,31.47-9.416l-4.881-22.648,5.769-2.264q2.875,6.564,5.392,12.285.439,3.4,1.028,6.773C87.805,242.11,92.295,254.218,102.859,256.424Z" transform="translate(-0.974 -92.648)" fill="#ce5928" opacity="0.2"/>
            <path id="Shadow-2" data-name="Shadow" d="M198.92,197.4a.771.771,0,0,1,.531-.961.79.79,0,0,1,.978.522l5.193,17.222a.771.771,0,0,1-.531.961.789.789,0,0,1-.978-.522Zm32.869-8.414a.774.774,0,1,1,.012-1.547,18.894,18.894,0,0,0,6.168-.94.79.79,0,0,1,1,.483.77.77,0,0,1-.492.981A20.487,20.487,0,0,1,231.789,188.986Z" transform="translate(-91.137 -85.205)" fill="#482d1f"/>
            <path id="Hair" d="M38.736,40.77c-1.374-.07-2.591-1.189-3.615-3.326a29.942,29.942,0,0,1-2.11-7.176,14.476,14.476,0,0,0,2.7-.58,7.815,7.815,0,0,0,3.843-3.659,8.016,8.016,0,0,0-.421-8.018,7.292,7.292,0,0,0-5.746-3.166,5.011,5.011,0,0,0-1.624.261,5.933,5.933,0,0,0-2.433,1.678c-.019.021-.032.036-.041.044a9.02,9.02,0,0,0-.8,1.219L.033,16.282v0A19.312,19.312,0,0,1,.719,11.07,16.089,16.089,0,0,1,2.665,6.586,12.392,12.392,0,0,1,6.647,2.655a18.6,18.6,0,0,1,3.461-1.508A20.768,20.768,0,0,1,15.171.078C15.976.026,16.823,0,17.689,0a63.8,63.8,0,0,1,7.941.582c.607.075,1.085.134,1.4.158.046,0,.1.006.175.006.271,0,.716-.029,1.281-.065L29.3.63C30.137.581,31.411.514,32.82.514c4.487,0,8.077.671,10.667,2a10.937,10.937,0,0,1,3.492,3.228,15.937,15.937,0,0,1,2.183,4.407,18.832,18.832,0,0,1,.815,4.255,17.528,17.528,0,0,1-.39,5.6,63.2,63.2,0,0,1-4.362,10.94,71.6,71.6,0,0,1-6.488,9.834ZM.824,22.238a.711.711,0,0,1-.316-1.184,3.578,3.578,0,0,1,2.369-.861c2.158,0,4.474,1.453,2.053,2.1a6.337,6.337,0,0,1-1.818.245A9.14,9.14,0,0,1,.824,22.238Zm10.948-.618a.682.682,0,0,1-.264-1.184,3.627,3.627,0,0,1,2.422-.86c2.157,0,4.474,1.507,2.052,2.1a5.833,5.833,0,0,1-1.764.253A12.087,12.087,0,0,1,11.772,21.62Z" transform="matrix(0.995, -0.105, 0.105, 0.995, 62.139, 14.901)" fill="#482d1f"/>
          </g>
        </g>
      </g>
      <g id="Active-objects-_-Devices-_-Mouse" data-name="Active-objects-/-Devices-/-Mouse" transform="translate(261.443 318.872)">
        <path id="Mouse" d="M.906,6.521c5.717-5.989,17.64-10.943,38-.218,3.1,1.579,2.178,6.914-1.2,7.023l-34.789.98C.307,14.415-1,8.535.906,6.521Z" transform="translate(0.499 0) rotate(2)" fill="#474961"/>
      </g>
      <g id="Cat-2" data-name="Cat" transform="translate(101.47 435.63)">
        <path id="Combined-Shape-4" data-name="Combined-Shape" d="M91.558.159h7.4a10.083,10.083,0,0,1,7.224,7.506q1.5,5.736-7.224,11l-.06-.013.005.013H7.443Q-1.278,13.4.219,7.665A10.084,10.084,0,0,1,7.443.159Z" transform="translate(0 -0.159)" fill="#3abf7c"/>
      </g>
      <g id="UI-_-Code-_-1" data-name="UI-/-Code-/-1" transform="translate(0 58.469)">
        <g id="Code" transform="translate(0 0)">
          <path id="Path-5" data-name="Path" d="M272.146,173.063H105.769c-6.533,0-11.869-4.837-11.869-10.759V62.959c0-5.922,5.335-10.759,11.869-10.759H272.146c6.533,0,11.869,4.836,11.869,10.759v99.3C284.015,168.227,278.679,173.063,272.146,173.063Z" transform="translate(-42.424 -23.996)" fill="#f2f6fb"/>
          <path id="Top-bar" d="M94,41.891A10.891,10.891,0,0,1,104.889,31H273.117a10.892,10.892,0,0,1,10.889,10.891V54.41H94Z" transform="translate(-42.469 -14.338)" fill="#e1e5f0"/>
          <g id="Text" transform="translate(77.663 66.75)">
            <path id="Combined-Shape-5" data-name="Combined-Shape" d="M3.13,17.422H24.091a3.13,3.13,0,1,1,0,6.261H3.13a3.13,3.13,0,0,1,0-6.261Zm0,34.843H24.091a3.13,3.13,0,1,1,0,6.261H3.13a3.13,3.13,0,1,1,0-6.261ZM35.252,17.422H56.212a3.13,3.13,0,0,1,0,6.261H35.252a3.13,3.13,0,1,1,0-6.261Zm0,34.843H56.212a3.13,3.13,0,0,1,0,6.261H35.252a3.13,3.13,0,1,1,0-6.261ZM67.373,17.422H88.334a3.13,3.13,0,1,1,0,6.261H67.373a3.13,3.13,0,1,1,0-6.261Zm0,34.843H88.334a3.13,3.13,0,1,1,0,6.261H67.373a3.13,3.13,0,1,1,0-6.261ZM3.13,0H42.057a3.13,3.13,0,1,1,0,6.261H3.13A3.13,3.13,0,1,1,3.13,0Zm88.2,0h43.827a3.13,3.13,0,0,1,0,6.261H91.328a3.13,3.13,0,1,1,0-6.261Zm0,34.843h43.827a3.13,3.13,0,0,1,0,6.261H91.328a3.13,3.13,0,0,1,0-6.261Zm-38.11,0h7.894a3.13,3.13,0,0,1,0,6.261H53.218a3.13,3.13,0,1,1,0-6.261ZM72.273,0h7.894a3.13,3.13,0,1,1,0,6.261H72.273a3.13,3.13,0,1,1,0-6.261ZM99.494,17.422h35.66a3.13,3.13,0,0,1,0,6.261H99.494a3.13,3.13,0,1,1,0-6.261Z" transform="translate(0 0)" fill="#e1e5f0"/>
            <path id="Code-2" data-name="Code" d="M3.13,64H42.057a3.13,3.13,0,1,1,0,6.261H3.13A3.13,3.13,0,1,1,3.13,64Zm69.143,0h7.894a3.13,3.13,0,1,1,0,6.261H72.273a3.13,3.13,0,1,1,0-6.261Z" transform="translate(0 -29.157)" fill="#a339ff"/>
            <path id="Code-3" data-name="Code" d="M95.13,0h7.894a3.13,3.13,0,0,1,0,6.261H95.13A3.13,3.13,0,1,1,95.13,0Zm46.276,52.265h35.66a3.13,3.13,0,0,1,0,6.261h-35.66a3.13,3.13,0,1,1,0-6.261Z" transform="translate(-41.912 0)" fill="#ff5645"/>
          </g>
          <g id="Group_3" data-name="Group 3">
            <rect id="Placeholder" width="90" height="56" rx="20" transform="translate(0.441 0.033)" fill="#fdb132"/>
            <path id="Path-6" data-name="Path" d="M38.151,28,20,42.6,39.055,53.044" transform="translate(-8.757 -12.971)" fill="none" stroke="#fff" stroke-linecap="round" stroke-linejoin="round" stroke-width="10" fill-rule="evenodd"/>
            <path id="Path-7" data-name="Path" d="M107.837,53.044l18.218-12.495L107,28" transform="translate(-48.392 -12.971)" fill="none" stroke="#fff" stroke-linecap="round" stroke-linejoin="round" stroke-width="10" fill-rule="evenodd"/>
            <path id="Path-Copy-2" d="M73,54.857l8.293-36.483" transform="translate(-32.902 -8.586)" fill="none" stroke="#fff" stroke-linecap="round" stroke-linejoin="round" stroke-width="10" fill-rule="evenodd"/>
          </g>
        </g>
      </g>
      <g id="Interior-_-Table-_-Table-3" data-name="Interior-/-Table-/-Table-3" transform="translate(91.546 333.191)">
        <path id="Combined-Shape-6" data-name="Combined-Shape" d="M7.622,119.784q.135-.01.272-.01H116.236a3.811,3.811,0,1,1,0,7.622H7.894q-.137,0-.272-.01V193A3.811,3.811,0,0,1,0,193V4.083A3.812,3.812,0,0,1,3.021.354,3.8,3.8,0,0,1,4.628,0H328.563a3.811,3.811,0,1,1,0,7.622H7.622Z" transform="translate(0 0)" fill="#d8deed"/>
      </g>
      <g id="Active-objects-_-Devices-_-Imac" data-name="Active-objects-/-Devices-/-Imac" transform="translate(132.868 230.294)">
        <g id="IMac" transform="translate(0 0)">
          <path id="Path_4" data-name="Path 4" d="M42.525,94.732l5.236-21.125H8.459C4.376,73.607,1,70.5,1,66.747V6.914C.946,3.1,4.267,0,8.4,0H128.015c4.083,0,7.459,3.1,7.459,6.86V66.747c0,3.757-3.375,6.86-7.459,6.86h-47.9L77.958,94.732h14.18a3.865,3.865,0,1,1,0,7.731h-60.7A3.845,3.845,0,0,1,27.569,98.6a3.779,3.779,0,0,1,3.865-3.865Z" transform="translate(-0.999)" fill="#676099"/>
          <path id="Shadow-3" data-name="Shadow" d="M146.175,106.919l.161,36.576h-3.9Z" transform="translate(-65.432 -48.709)" fill="#fff" fill-rule="evenodd"/>
        </g>
      </g>
    </g>
  </g>
</svg>
