<svg xmlns="http://www.w3.org/2000/svg" width="85.085" height="85.085" viewBox="0 0 85.085 85.085">
  <g id="puzzle" transform="translate(0 0)">
    <path id="Path_17" data-name="Path 17" d="M45.169,218.554l9.713-9.713-7.59-7.59A8.473,8.473,0,1,1,35.38,189.341l-7.592-7.592-9.77,9.77a6.539,6.539,0,1,1-7.563,7.563L.8,208.742a2.718,2.718,0,0,0,0,3.844l7.78,7.78a6.538,6.538,0,1,0,7.688,7.688l7.78,7.78a2.718,2.718,0,0,0,3.844,0l9.6-9.6a6.538,6.538,0,1,0,7.678-7.678Z" transform="translate(0 -151.546)" fill="#676099"/>
    <path id="Path_18" data-name="Path 18" d="M241.408,24.045l-7.866-7.866a6.539,6.539,0,1,0-7.514-7.514L218.159.8a2.718,2.718,0,0,0-3.844,0l-9.143,9.143a6.54,6.54,0,1,0-7.325,7.325l-9.413,9.413,10.054,10.054a2.5,2.5,0,0,1-1.306,4.213,3.5,3.5,0,1,0,4.078,4.079,2.494,2.494,0,0,1,4.213-1.306l10.054,10.054,9.622-9.622a6.542,6.542,0,1,1,6.906-6.906l9.354-9.354a2.718,2.718,0,0,0,0-3.844Z" transform="translate(-157.119 0)" fill="#676099"/>
  </g>
</svg>
